PathFileType	4	(X/Y/Z)	C:/Users/opensim2020/Desktop/walking_exp_matlab/subject06_walking22_straight_01.trc																																																																																																																																		
DataRate	CameraRate	NumFrames	NumMarkers	Units	OrigDataRate	OrigDataStartFrame	OrigNumFrames																																																																																																																														
100	100	6	44	mm	100	830	141																																																																																																																														
Frame#	Time	LFHD			RFHD			LBHD			RBHD			C7			T10			CLAV			STRN			RBAK			LSHO			LUPA			LELB			LFRM			LWRA			LWRB			LFIN			RSHO			RUPA			RELB			RFRM			RWRA			RWRB			RFIN			LASI			RASI			LPSI			RPSI			LTHI			LKNE			LTIB			LANK			LHEE			LTOE			RTHI			RKNE			RTIB			RANK			RHEE			RTOE			*39			*40			*41			*42			*43		
		X1	Y1	Z1	X2	Y2	Z2	X3	Y3	Z3	X4	Y4	Z4	X5	Y5	Z5	X6	Y6	Z6	X7	Y7	Z7	X8	Y8	Z8	X9	Y9	Z9	X10	Y10	Z10	X11	Y11	Z11	X12	Y12	Z12	X13	Y13	Z13	X14	Y14	Z14	X15	Y15	Z15	X16	Y16	Z16	X17	Y17	Z17	X18	Y18	Z18	X19	Y19	Z19	X20	Y20	Z20	X21	Y21	Z21	X22	Y22	Z22	X23	Y23	Z23	X24	Y24	Z24	X25	Y25	Z25	X26	Y26	Z26	X27	Y27	Z27	X28	Y28	Z28	X29	Y29	Z29	X30	Y30	Z30	X31	Y31	Z31	X32	Y32	Z32	X33	Y33	Z33	X34	Y34	Z34	X35	Y35	Z35	X36	Y36	Z36	X37	Y37	Z37	X38	Y38	Z38	X39	Y39	Z39	X40	Y40	Z40	X41	Y41	Z41	X42	Y42	Z42	X43	Y43	Z43	X44	Y44	Z44
																																																																																																																																					
89	0.88	137.32349	1618.22827	1378.50916	148.30977	1609.21191	1510.04053	1.37817	1573.25732	1391.46899	13.70428	1569.43787	1520.62683	-7.734	1416.82422	1446.23096	-57.91658	1088.1853	1450.37805	97.58164	1332.46667	1441.15918	127.31011	1156.47473	1437.4502	-86.98794	1252.02759	1533.25256	35.21469	1366.15527	1281.3429	-31.68706	1176.38245	1211.86243	-77.13834	1073.28699	1202.52246	-109.94989	928.42944	1173.33484	-85.09422	796.52832	1196.14954	-150.83252	816.03082	1176.21277	-144.0945	725.5697	1166.66626	62.24786	1369.4519	1602.24426	34.6618	1180.77979	1706.71191	55.90129	1064.38794	1728.36548	121.6397	967.46442	1737.15088	234.64095	882.32257	1684.25684	195.98262	853.03577	1730.59717	267.38373	810.50873	1719.83508	130.93005	929.65851	1350.18945	107.82462	930.7699	1569.53467	-27.44301	951.24005	1356.38916	-40.64466	956.57458	1523.84192	147.1701	622.17993	1284.92908	211.46506	477.91919	1323.50989	252.66986	225.43459	1345.05103	305.94785	64.70022	1393.30042	271.93951	47.11976	1443.35291	451.56482	66.03342	1392.54028	-4.84962	605.49396	1613.70862	-31.76875	479.66174	1594.38562	-223.83205	284.2421	1577.52002	-344.82263	143.37526	1524.93933	-388.67352	150.3179	1481.15747	-239.64673	35.0641	1503.8291	45.37775	1664.19446	1445.81506	NaN	NaN	NaN	NaN	NaN	NaN	NaN	NaN	NaN	NaN	NaN	NaN
90	0.89	152.09602	1618.97046	1377.29248	162.75467	1609.89038	1508.94653	16.17431	1573.50378	1389.80029	28.15854	1569.53149	1518.98877	7.23945	1416.75439	1444.06042	-41.05213	1087.69763	1449.14807	112.92439	1333.06433	1439.84961	143.53949	1157.16663	1436.37354	-71.82639	1251.354	1530.71582	51.12554	1366.07629	1279.59509	-14.67765	1175.62573	1210.59131	-59.87575	1072.45972	1201.59448	-93.0001	927.62683	1172.81946	-68.35174	795.74744	1195.953	-134.17062	815.39905	1175.84094	-127.74642	724.77008	1166.4585	76.43023	1369.94763	1600.86548	47.99328	1181.16199	1705.39758	68.59225	1064.70117	1727.30151	133.51154	967.22186	1736.50916	246.02283	881.09894	1684.35645	207.11351	852.16638	1730.58142	278.06943	809.10822	1720.20056	147.47527	930.03442	1349.47571	125.22132	930.7644	1568.48999	-10.95186	951.95093	1355.41199	-23.3093	956.74585	1523.19763	165.79356	623.62805	1285.45044	228.61964	479.22531	1322.79517	265.15005	226.37605	1345.90137	310.42087	65.03693	1392.69092	275.2995	49.91739	1442.50952	456.64609	56.80721	1393.72766	14.93925	604.28741	1615.13757	-10.00415	477.87207	1597.56213	-206.92068	288.70676	1578.95691	-333.57336	153.05228	1526.9845	-375.2514	163.84007	1482.95654	-240.015	34.96457	1503.50659	59.85863	1664.49805	1444.31262	NaN	NaN	NaN	NaN	NaN	NaN	NaN	NaN	NaN	NaN	NaN	NaN
91	0.9	166.86938	1620.46863	1376.08093	177.09958	1611.32715	1507.76758	31.16229	1574.48572	1388.00378	42.57902	1570.46472	1517.26697	22.47887	1417.65466	1442.00842	-24.78829	1088.02356	1448.18225	128.1581	1334.25488	1438.48865	159.41516	1158.34424	1435.19482	-56.20132	1251.14734	1527.80798	67.01305	1366.50684	1277.80383	2.68357	1175.32971	1209.22327	-41.96774	1071.90503	1200.37756	-74.8814	926.93604	1172.03906	-50.6113	795.2724	1195.67847	-116.04446	814.84143	1175.08252	-110.38278	724.31482	1166.26587	90.68395	1371.01074	1599.72974	61.14029	1181.95947	1703.86438	81.09279	1065.30786	1726.17908	144.98294	967.06226	1735.77991	256.57874	879.44354	1684.31335	217.25557	851.31195	1730.43982	287.88007	807.31146	1720.62549	163.64346	930.94922	1348.42773	142.30768	930.92719	1567.02954	4.95143	953.88562	1355.09875	-6.04929	957.2088	1523.12305	183.03242	626.0282	1285.58093	246.0443	482.00571	1322.03467	277.9845	228.79034	1343.95813	315.68121	65.09205	1392.16223	278.85333	51.95528	1441.64697	460.41116	52.32232	1393.01392	35.92848	603.05676	1616.53052	13.6232	476.05319	1600.97205	-187.82057	293.59293	1580.81531	-319.93124	163.92862	1529.18628	-358.62939	178.59402	1484.66138	-241.12471	35.19088	1503.34912	74.1506	1665.573	1442.81128	NaN	NaN	NaN	NaN	NaN	NaN	NaN	NaN	NaN	NaN	NaN	NaN
92	0.91	181.67393	1622.07251	1374.81128	191.48022	1612.90735	1506.50574	45.88773	1575.92419	1386.36523	57.01228	1571.87708	1515.5144	37.93456	1419.09631	1440.229	-9.06736	1089.1333	1447.24512	143.4597	1335.75195	1437.21533	175.17484	1159.94348	1433.94287	-40.73781	1251.68982	1525.49561	83.22779	1367.39893	1276.18799	20.34471	1175.51355	1207.90735	-23.63483	1071.75366	1199.32202	-56.11401	926.6568	1171.25	-31.73469	795.24854	1195.34814	-97.18924	814.61725	1174.43494	-91.67442	724.04437	1165.98779	105.25273	1372.52087	1598.70691	74.06621	1183.29089	1702.24036	93.47447	1066.3551	1724.84314	156.07768	967.10352	1734.99158	266.77222	877.80066	1684.43579	226.83949	850.31372	1730.28186	296.72461	805.28265	1721.21362	179.4072	932.67517	1347.15686	159.09128	931.5899	1565.15088	20.31309	956.18604	1355.66479	10.51757	957.70477	1523.5647	199.96849	629.9035	1285.67273	264.09753	485.61877	1321.67834	289.19357	231.10699	1342.36841	318.88992	65.82662	1391.63794	281.23578	53.54471	1440.88306	462.78552	47.55541	1392.29004	57.9654	601.79999	1617.83484	38.89635	474.18802	1604.14063	-166.47501	298.82855	1583.22095	-303.66797	175.24725	1531.55859	-339.96262	193.79745	1486.67249	-238.72035	37.7371	1504.14856	88.64735	1667.10876	1441.23291	NaN	NaN	NaN	NaN	NaN	NaN	NaN	NaN	NaN	NaN	NaN	NaN
93	0.92	196.49478	1623.495	1373.42676	205.9404	1614.36597	1505.13184	60.72193	1577.35291	1384.59924	71.42417	1573.38391	1513.81458	53.45776	1420.52917	1438.68298	6.25203	1090.58301	1446.74377	158.76045	1337.25513	1436.07935	190.71194	1161.54565	1432.8103	-25.27227	1252.70215	1523.74109	99.46478	1368.68726	1274.89612	38.24466	1176.2439	1206.53638	-4.85922	1072.1261	1198.13745	-36.46366	926.74847	1170.33325	-11.73398	795.74762	1194.95825	-77.09835	814.60229	1173.52747	-71.57918	724.00281	1165.64148	120.26032	1374.28162	1597.50208	86.93013	1185.09155	1700.34875	105.79648	1067.83606	1723.05481	166.91377	967.44714	1734.02478	276.3187	875.87524	1684.64978	235.59729	849.34204	1730.24963	304.70972	803.00281	1721.91357	194.83609	934.90503	1345.82629	175.61662	932.56799	1563.15405	35.0377	958.35504	1356.77075	26.52628	958.17017	1524.37415	216.11913	633.67877	1284.23962	280.99969	489.04712	1321.37964	299.01929	232.65671	1339.87952	321.02625	66.15777	1391.88208	282.89026	54.43506	1440.58594	464.57117	44.75495	1392.99451	80.66241	600.24786	1619.0874	65.16164	472.30286	1606.81799	-142.69202	303.77148	1585.75732	-285.23044	187.09499	1533.5332	-319.53409	208.57849	1488.91211	-232.24367	42.44481	1505.58765	103.38182	1668.58105	1439.56494	NaN	NaN	NaN	NaN	NaN	NaN	NaN	NaN	NaN	NaN	NaN	NaN
94	0.93	211.20171	1624.7135	1371.96179	220.35461	1615.79309	1503.76941	75.42783	1578.47388	1382.91772	85.87838	1574.71924	1512.16028	68.76997	1421.77197	1437.29639	21.2983	1092.12585	1446.31689	174.03534	1338.64136	1434.99072	206.15251	1163.00745	1431.83276	-9.79294	1254.05176	1522.45764	115.76719	1370.14575	1273.77307	56.32627	1177.0603	1205.65454	14.227	1072.71777	1196.85559	-15.98793	927.00012	1169.32202	8.12	795.32489	1195.69019	-55.75452	814.58496	1172.2561	-50.05768	723.85046	1165.21777	135.37035	1376.10815	1596.11011	99.87546	1187.1062	1698.52307	118.3914	1069.59509	1721.14136	177.4958	967.91846	1732.97302	285.33356	873.88751	1684.87463	243.78854	848.30847	1730.25647	311.8382	800.46271	1722.71936	209.92569	937.47955	1344.27637	191.49655	933.72034	1561.24402	49.12474	960.24109	1358.02515	41.95739	958.61957	1525.27954	231.22984	636.71289	1282.28735	295.80429	491.23517	1321.25537	307.86414	233.3878	1338.79456	323.33511	66.60005	1392.4812	284.14978	55.16458	1440.65295	466.56686	43.34501	1394.72729	103.86417	598.82257	1619.96777	92.01694	470.71725	1608.72375	-117.00526	308.25375	1587.8988	-263.55145	198.2379	1535.724	-295.6792	222.96535	1491.25977	-224.76088	46.99995	1507.80103	117.95587	1669.81812	1437.83826	NaN	NaN	NaN	NaN	NaN	NaN	NaN	NaN	NaN	NaN	NaN	NaN
